<!-- Generated by IcoMoon.io -->
<svg version="1.1" xmlns="http://www.w3.org/2000/svg" width="32" height="32" viewBox="0 0 32 32">
<title>cloudy</title>
<path d="M29.775 19.675c0.646-0.804 1.038-1.838 1.038-2.962 0-0.004 0-0.007 0-0.011v0.001c-0.009-2.285-1.611-4.193-3.753-4.671l-0.032-0.006c-0.852-3.352-3.843-5.793-7.404-5.793-1.517 0-2.93 0.443-4.118 1.206l0.030-0.018c-0.682-0.238-1.468-0.375-2.286-0.375-0.005 0-0.011 0-0.016 0h0.001c-3.153 0.008-5.831 2.028-6.819 4.844l-0.016 0.051c-0.129-0.012-0.279-0.020-0.431-0.020-2.641 0-4.781 2.141-4.781 4.781s2.141 4.781 4.781 4.781c0 0 0.001 0 0.001 0h3.225c-0.045 0.214-0.071 0.459-0.071 0.71 0 1.974 1.601 3.575 3.575 3.575 0.003 0 0.006 0 0.008 0h14.521c0.003 0 0.006 0 0.009 0 1.974 0 3.575-1.601 3.575-3.575 0-0.982-0.396-1.872-1.037-2.518l0 0zM5.97 20.608c-0 0-0.001 0-0.001 0-2.158 0-3.907-1.749-3.907-3.907s1.749-3.907 3.907-3.907c0.236 0 0.468 0.021 0.693 0.061l-0.024-0.004c0.022 0.004 0.047 0.006 0.073 0.006 0.199 0 0.367-0.134 0.42-0.316l0.001-0.003c0.782-2.683 3.217-4.612 6.103-4.619h0.001c0.005 0 0.011-0 0.017-0 0.786 0 1.539 0.145 2.233 0.409l-0.043-0.014c0.046 0.018 0.099 0.028 0.154 0.028 0.092 0 0.177-0.028 0.248-0.076l-0.002 0.001c1.061-0.726 2.371-1.16 3.784-1.16 3.245 0 5.955 2.289 6.604 5.341l0.008 0.044c0.038 0.18 0.183 0.318 0.363 0.345l0.002 0c1.894 0.295 3.328 1.912 3.334 3.864v0.001c0 0.002 0 0.005 0 0.008 0 0.919-0.32 1.763-0.854 2.427l0.006-0.008c-0.299-0.187-0.646-0.335-1.015-0.425l-0.024-0.005c-0.656-2.443-2.851-4.213-5.459-4.213-1.101 0-2.129 0.315-2.997 0.861l0.023-0.014c-0.489-0.165-1.053-0.259-1.639-0.259-0.004 0-0.008 0-0.012 0h0.001c-2.302 0.006-4.262 1.46-5.018 3.499l-0.012 0.037c-0.070-0.005-0.152-0.008-0.234-0.008-1.402 0-2.614 0.808-3.198 1.983l-0.009 0.021zM27.23 24.893h-14.521c-1.495 0-2.707-1.212-2.707-2.707s1.212-2.707 2.707-2.707v0c0.164 0 0.325 0.015 0.481 0.042l-0.017-0.002c0.022 0.004 0.047 0.006 0.072 0.006 0.199 0 0.367-0.133 0.42-0.316l0.001-0.003c0.552-1.891 2.268-3.251 4.302-3.255h0.001c0.004 0 0.008-0 0.013-0 0.554 0 1.084 0.102 1.573 0.288l-0.030-0.010c0.046 0.018 0.099 0.028 0.154 0.028 0.092 0 0.177-0.028 0.247-0.076l-0.002 0.001c0.749-0.513 1.674-0.819 2.671-0.819 2.291 0 4.205 1.616 4.663 3.771l0.006 0.031c0.038 0.18 0.183 0.318 0.363 0.345l0.002 0c1.314 0.2 2.31 1.323 2.31 2.678 0 1.495-1.212 2.707-2.707 2.707v0z"></path>
</svg>

